<svg xmlns="http://www.w3.org/2000/svg" version="1.1" xmlns:xlink="http://www.w3.org/1999/xlink" xmlns:svgjs="http://svgjs.dev/svgjs" width="1000" height="1000" viewBox="0 0 1000 1000"><rect width="1000" height="1000" fill="#ffffff"></rect><g transform="matrix(0.7,0,0,0.7,149.575764411556,369.2817887387131)"><svg viewBox="0 0 396 148" data-background-color="#051726" preserveAspectRatio="xMidYMid meet" height="373" width="1000" xmlns="http://www.w3.org/2000/svg" xmlns:xlink="http://www.w3.org/1999/xlink"><g id="tight-bounds" transform="matrix(1,0,0,1,0.2399965727259996,0.09535672865172273)"><svg viewBox="0 0 395.52 147.80929563951963" height="147.80929563951963" width="395.52"><g><svg viewBox="0 0 683.8903566519994 255.57582906399654" height="147.80929563951963" width="395.52"><g transform="matrix(1,0,0,1,288.3703566519994,66.14396154984765)"><svg viewBox="0 0 395.52 123.28790596430125" height="123.28790596430125" width="395.52"><g id="textblocktransform"><svg viewBox="0 0 395.52 123.28790596430125" height="123.28790596430125" width="395.52" id="textblock"><g><svg viewBox="0 0 395.52 123.28790596430125" height="123.28790596430125" width="395.52"><g transform="matrix(1,0,0,1,0,0)"><svg width="395.52" viewBox="2.5 -35.5 114.83999633789062 35.79999923706055" height="123.28790596430125" data-palette-color="#ffffff"><path d="M17.3 0.3L17.3 0.3Q10.15 0.3 6.33-4.53 2.5-9.35 2.5-17.6 2.5-25.85 6.55-30.65 10.6-35.45 17.85-35.45L17.85-35.45Q21.85-35.45 25.7-34L25.7-34 24.8-30.9Q21.75-32.2 17.6-32.2L17.6-32.2Q12.35-32.2 9.3-28.38 6.25-24.55 6.25-17.88 6.25-11.2 9.13-7.08 12-2.95 17.15-2.95L17.15-2.95Q20.55-2.95 25.7-4.9L25.7-4.9 26.7-2.3Q22.4 0.3 17.3 0.3ZM45.35 0.25L45.35 0.25Q38.5 0.25 35-4.83 31.5-9.9 31.5-17.75 31.5-25.6 35.02-30.55 38.55-35.5 45.37-35.5 52.2-35.5 55.75-30.55 59.3-25.6 59.3-17.75L59.3-17.75Q59.3-7 53.2-2.25L53.2-2.25Q49.95 0.25 45.35 0.25ZM45.45-32.25L45.45-32.25Q40.35-32.25 37.82-28 35.3-23.75 35.3-17.6 35.3-11.45 37.87-7.25 40.45-3.05 45.45-3.05 50.45-3.05 53-7.3 55.55-11.55 55.55-18L55.55-18Q55.55-26.1 51-30.1L51-30.1Q48.65-32.25 45.45-32.25ZM91.44-18.75L91.44-18.75Q91.44-10.3 86.55-5.15 81.64 0 73.44 0L73.44 0 66.14 0 66.14-35 75-35Q82.44-35 86.94-30.45 91.44-25.9 91.44-18.75ZM87.39-19.15L87.39-19.15Q87.39-25.05 83.8-28.4 80.19-31.75 75.19-31.75L75.19-31.75 70.19-31.75 70.19-3.25 73.89-3.25Q79.55-3.25 83.47-7.5 87.39-11.75 87.39-19.15ZM117.34-3.25L117.34 0 98.49 0 98.49-35 117.34-35 117.34-31.75 102.24-31.75 102.24-20.65 116.09-20.65 116.09-17.3 102.24-17.3 102.24-3.25 117.34-3.25Z" opacity="1" transform="matrix(1,0,0,1,0,0)" fill="#000000" class="wordmark-text-0" data-fill-palette-color="primary" id="text-0"></path></svg></g></svg></g></svg></g></svg></g><g><svg viewBox="0 0 259.265040963571 255.57582906399654" height="255.57582906399654" width="259.265040963571"><g><svg xmlns="http://www.w3.org/2000/svg" xmlns:xlink="http://www.w3.org/1999/xlink" version="1.1" x="0" y="0" viewBox="5.796513557434082 6.4260053634643555 88.40596771240234 87.14799499511719" enable-background="new 0 0 100 100" xml:space="preserve" height="255.57582906399654" width="259.265040963571" class="icon-icon-0" data-fill-palette-color="accent" id="icon-0"><g fill="#81ffd9" data-fill-palette-color="accent"><path fill="#000000" d="M67.398 87.244c-7.943 0-16.207-3.538-23.271-9.962-15.94-14.497-21.76-39.905-12.977-56.639 4.744-9.035 13.023-14.217 22.711-14.217 7.943 0 16.208 3.537 23.275 9.965 15.937 14.498 21.756 39.904 12.973 56.634C85.365 82.062 77.086 87.244 67.398 87.244zM53.861 10.087c-8.283 0-15.379 4.467-19.472 12.258-8.054 15.352-2.584 38.781 12.201 52.229 6.388 5.809 13.781 9.009 20.808 9.009 8.283 0 15.379-4.469 19.473-12.26 8.054-15.349 2.584-38.778-12.201-52.226C68.281 13.286 60.893 10.087 53.861 10.087z" data-fill-palette-color="accent"></path></g><g fill="#81ffd9" data-fill-palette-color="accent"><path fill="#000000" d="M66.849 77.857L66.849 77.857c-6.481 0-13.216-2.879-18.964-8.107C34.943 57.982 30.221 37.343 37.364 23.745c3.882-7.396 10.66-11.638 18.595-11.638 6.479 0 13.213 2.881 18.965 8.111 12.941 11.767 17.66 32.403 10.521 46.006C81.559 73.618 74.781 77.857 66.849 77.857zM55.959 15.767c-6.527 0-12.125 3.528-15.356 9.679-6.414 12.217-2.045 30.877 9.741 41.595 5.076 4.615 10.939 7.156 16.505 7.156 6.527 0.002 12.122-3.526 15.356-9.676 6.414-12.219 2.042-30.878-9.74-41.594C67.385 18.311 61.525 15.767 55.959 15.767z" data-fill-palette-color="accent"></path></g><g fill="#81ffd9" data-fill-palette-color="accent"><g fill="#81ffd9" data-fill-palette-color="accent"><polygon fill="#000000" points="57,59.266 53.762,57.564 57.461,50.509 60.699,52.211   " data-fill-palette-color="accent"></polygon></g><g fill="#81ffd9" data-fill-palette-color="accent"><rect x="66.742" y="29.306" transform="matrix(0.8853 0.4651 -0.4651 0.8853 23.3479 -28.071)" fill="#000000" width="3.659" height="7.966" data-fill-palette-color="accent"></rect></g></g><g fill="#81ffd9" data-fill-palette-color="accent"><g fill="#81ffd9" data-fill-palette-color="accent"><rect x="58.57" y="56.312" transform="matrix(0.0186 0.9998 -0.9998 0.0186 120.1163 -6.0877)" fill="#000000" width="9.179" height="3.662" data-fill-palette-color="accent"></rect></g><g fill="#81ffd9" data-fill-palette-color="accent"><rect x="58.047" y="28.201" transform="matrix(0.0187 0.9998 -0.9998 0.0187 91.4909 -33.1568)" fill="#000000" width="9.18" height="3.662" data-fill-palette-color="accent"></rect></g></g><g fill="#81ffd9" data-fill-palette-color="accent"><g fill="#81ffd9" data-fill-palette-color="accent"><rect x="64.169" y="55.801" transform="matrix(0.4119 0.9112 -0.9112 0.4119 93.1134 -28.9995)" fill="#000000" width="9.705" height="3.665" data-fill-palette-color="accent"></rect></g><g fill="#81ffd9" data-fill-palette-color="accent"><rect x="51.922" y="28.709" transform="matrix(0.412 0.9112 -0.9112 0.412 61.211 -33.7757)" fill="#000000" width="9.708" height="3.663" data-fill-palette-color="accent"></rect></g></g><g fill="#81ffd9" data-fill-palette-color="accent"><g fill="#81ffd9" data-fill-palette-color="accent"><rect x="68.675" y="51.664" transform="matrix(0.74 0.6726 -0.6726 0.74 55.0226 -35.3537)" fill="#000000" width="9.13" height="3.659" data-fill-palette-color="accent"></rect></g><g fill="#81ffd9" data-fill-palette-color="accent"><polygon fill="#000000" points="54.705,39.109 47.952,32.971 50.412,30.261 57.164,36.399   " data-fill-palette-color="accent"></polygon></g></g><g fill="#81ffd9" data-fill-palette-color="accent"><g fill="#81ffd9" data-fill-palette-color="accent"><polygon fill="#000000" points="78.123,49.517 70.424,47.717 71.26,44.153 78.96,45.953   " data-fill-palette-color="accent"></polygon></g><g fill="#81ffd9" data-fill-palette-color="accent"><rect x="47.156" y="39.51" transform="matrix(0.974 0.2265 -0.2265 0.974 10.6941 -10.5037)" fill="#000000" width="7.906" height="3.659" data-fill-palette-color="accent"></rect></g></g><g fill="#81ffd9" data-fill-palette-color="accent"><g fill="#81ffd9" data-fill-palette-color="accent"><rect x="71.149" y="35.813" transform="matrix(0.4179 0.9085 -0.9085 0.4179 78.3109 -43.3441)" fill="#000000" width="3.66" height="7.249" data-fill-palette-color="accent"></rect></g><g fill="#81ffd9" data-fill-palette-color="accent"><rect x="50.986" y="45.116" transform="matrix(0.4198 0.9076 -0.9076 0.4198 74.8844 -19.6587)" fill="#000000" width="3.663" height="7.246" data-fill-palette-color="accent"></rect></g></g><g fill="#81ffd9" data-fill-palette-color="accent"><path fill="#000000" d="M50.887 93.574c-25.76 0-42.997-15.41-44.985-40.217C4.168 31.793 24.055 9.803 47.62 7.222l0.4 3.639C26.689 13.197 7.997 33.708 9.548 53.064c1.823 22.729 17.663 36.85 41.338 36.85 6.518 0 15.072-2.707 22.887-7.241l1.837 3.167C71.604 88.166 61.172 93.574 50.887 93.574z" data-fill-palette-color="accent"></path></g></svg></g></svg></g></svg></g><defs></defs></svg><rect width="395.52" height="147.80929563951963" fill="none" stroke="none" visibility="hidden"></rect></g></svg></g></svg>